<svg xmlns="http://www.w3.org/2000/svg" viewBox="0 0 512 512"><polygon fill="#fff" points="128.06 154.71 165.47 304.35 449.05 304.35 495.12 154.71 128.06 154.71"/><path fill="navy" d="M507.71 142.76c-2.83-3.83-7.31-6.08-12.06-6.08H225.65c-8.28 0-15 6.72-15 15h0c0 8.28 6.72 15 15 15h249.72l-37.41 122.23H177.21l-30.9-122.23h19.75c8.28 0 15-6.72 15-15h0c0-8.28-6.72-15-15-15h-27.33l-12.61-49.85c-4.64-21.11-23.62-36.39-45.26-36.39H16.77c-8.08 0-15.03 6.22-15.41 14.29-.4 8.61 6.47 15.71 14.98 15.71h63.69c7.47 0 15.21 5.89 16.86 13.17.02.11.05.21.08.32l54.01 213.66c1.68 6.66 7.67 11.32 14.54 11.32h283.53c6.59 0 12.41-4.3 14.34-10.61l46.59-152.23c1.39-4.55.55-9.49-2.28-13.31zM467.04 368.86c-.37 8.07-7.32 14.29-15.41 14.29H165.53c-8.28 0-15-6.72-15-15h0c0-8.28 6.72-15 15-15h286.53c8.52 0 15.38 7.1 14.98 15.71z"/><circle cx="217.82" cy="417.97" r="28.59" fill="#4097ff"/><path fill="navy" d="M217.82,461.56c-24.04,0-43.59-19.55-43.59-43.59s19.55-43.59,43.59-43.59,43.59,19.55,43.59,43.59-19.55,43.59-43.59,43.59ZM217.82,404.38c-7.49,0-13.59,6.1-13.59,13.59s6.1,13.59,13.59,13.59,13.59-6.1,13.59-13.59-6.1-13.59-13.59-13.59Z"/><circle cx="405.46" cy="417.97" r="28.59" fill="#4097ff"/><path fill="navy" d="M405.46,461.56c-24.04,0-43.59-19.55-43.59-43.59s19.55-43.59,43.59-43.59,43.59,19.55,43.59,43.59-19.55,43.59-43.59,43.59ZM405.46,404.38c-7.49,0-13.59,6.1-13.59,13.59s6.1,13.59,13.59,13.59,13.59-6.1,13.59-13.59-6.1-13.59-13.59-13.59Z"/><rect width="86.23" height="29.59" x="264.74" y="213" fill="#bbd7ff" rx="14.79" ry="14.79" transform="rotate(90 307.855 227.795)"/><rect width="86.23" height="29.59" x="330.62" y="213" fill="#bbd7ff" rx="14.79" ry="14.79" transform="rotate(90 373.735 227.795)"/><rect width="86.23" height="29.59" x="198.85" y="213" fill="#bbd7ff" rx="14.79" ry="14.79" transform="rotate(90 241.975 227.795)"/><rect width="216.15" height="29.59" x="199.78" y="213" fill="#bbd7ff" rx="14.79" ry="14.79" transform="rotate(180 307.855 227.795)"/><path fill="navy" d="M236.53 303.91v49.24h-30v-49.24c0-8.28 6.72-15 15-15s15 6.72 15 15zM409.17 303.91v49.24h-30v-49.24c0-8.28 6.72-15 15-15s15 6.72 15 15z"/></svg>