<!DOCTYPE svg PUBLIC "-//W3C//DTD SVG 1.1//EN" "http://www.w3.org/Graphics/SVG/1.1/DTD/svg11.dtd">
<!-- Uploaded to: SVG Repo, www.svgrepo.com, Transformed by: SVG Repo Mixer Tools -->
<svg fill="#ffffff" height="800px" width="800px" version="1.1" id="Layer_1" xmlns="http://www.w3.org/2000/svg" xmlns:xlink="http://www.w3.org/1999/xlink" viewBox="0 0 512.009 512.009" xml:space="preserve" stroke="#ffffff">
<g id="SVGRepo_bgCarrier" stroke-width="0"/>
<g id="SVGRepo_tracerCarrier" stroke-linecap="round" stroke-linejoin="round"/>
<g id="SVGRepo_iconCarrier"> <g> <g> <path d="M432.432,461.556c-78.613-49.813-109.013-246.827-113.067-275.627c21.227-37.227,28.053-69.013,20.373-94.72 c-3.413-11.627-10.347-21.973-19.733-29.653v-50.56c0-5.333-3.84-10.133-9.067-10.88c-6.613-0.96-12.267,4.16-12.267,10.56v46.187 c-15.36,2.773-29.867,8.853-42.667,17.813c-12.8-8.96-27.307-15.04-42.667-17.707V10.996c0-5.333-3.84-10.133-9.067-10.88 c-6.613-0.96-12.267,4.16-12.267,10.56v50.88c-9.493,7.68-16.32,18.027-19.733,29.653c-7.68,25.6-0.853,57.493,20.373,94.72 c-4.053,28.8-34.347,225.813-112.96,275.733c-4.16,2.56-5.973,7.68-4.48,12.267c2.88,8.96,24.533,38.08,180.8,38.08 s177.92-29.227,180.8-38.08C438.298,469.236,436.485,464.223,432.432,461.556z M256.005,490.676 c-100.16,0-139.093-12.16-153.387-19.52c83.733-69.44,110.507-276.907,111.68-286.187c0.32-2.347-0.213-4.693-1.387-6.72 c-19.093-32.427-26.133-60.267-20.373-80.32c3.307-11.733,10.24-18.027,13.76-20.587c24.96,2.987,42.24,18.24,42.24,18.24 c3.413,3.413,8.853,4.16,13.013,1.6c0.533-0.32,1.067-0.747,1.6-1.28c0.747-0.64,17.92-15.68,42.667-18.667 c3.52,2.56,10.453,8.853,13.76,20.587c5.76,20.053-1.28,47.893-20.373,80.32c-1.173,2.027-1.707,4.373-1.387,6.72 c1.173,9.173,27.947,216.747,111.68,286.187C395.098,478.516,356.058,490.676,256.005,490.676z"/> </g> </g> </g>
</svg>